<svg version="1.1" id="Layer_1" xmlns="http://www.w3.org/2000/svg" x="0" y="0" viewBox="0 0 50 50" xml:space="preserve"><style>.st1{fill:#ed9469}.st2{fill:#fff}.st3{fill:#272549}.st4{fill:#e9a083}</style><path d="M30.19 46.41h-9.43c-8.91 0-16.13-7.22-16.13-16.13v-2.43c0-8.91 7.22-16.13 16.13-16.13h9.43c8.91 0 16.13 7.22 16.13 16.13v2.43c0 8.91-7.22 16.13-16.13 16.13z" fill="#f3dfa4"/><ellipse class="st1" cx="4.62" cy="29.07" rx="1.65" ry="7.34"/><path class="st2" d="M41.49 28.41c0 7.31-3.18 9.4-7.1 9.4s-7.1-2.1-7.1-9.4 3.18-11.39 7.1-11.39 7.1 4.08 7.1 11.39zM23.28 28.13c0 7.31-3.04 9.4-6.8 9.4s-6.8-2.1-6.8-9.4 3.04-11.39 6.8-11.39 6.8 4.09 6.8 11.39z"/><path class="st3" d="M27.62 41.13c-1.55 1.33-4.11 1.27-5.6-.13"/><circle class="st3" cx="16.39" cy="26.07" r="3.54"/><circle class="st2" cx="16.39" cy="24.11" r="1.61"/><circle class="st3" cx="34" cy="26.3" r="3.54"/><circle class="st2" cx="34" cy="24.38" r="1.61"/><path class="st3" d="M24.24 5.65h2.74v6.07h-2.74z"/><circle class="st4" cx="25.61" cy="6.19" r="3.37"/><ellipse class="st1" cx="46.32" cy="29.84" rx="1.65" ry="7.34"/><ellipse class="st4" cx="3.59" cy="29.49" rx="1.65" ry="5.1"/><ellipse class="st4" cx="47.32" cy="29.84" rx="1.65" ry="5.1"/></svg>