<svg viewBox="0 0 146 164" fill="none" xmlns="http://www.w3.org/2000/svg"><path d="M98.02 127.445a52.912 52.912 0 01-17.776-25.712 5.765 5.765 0 00-.759 3.391c.19 1.607.663 3.168 1.398 4.611a69.711 69.711 0 0016.05 21.762 69.838 69.838 0 008.626-3.914l-7.539-.138z" fill="#CF5B44"/><path d="M109.344 115.487a11.129 11.129 0 01-1.25 1.45H97.39c-5.468-5.545-7.564-9.924-8.254-15.624a10.96 10.96 0 00-3.657-1.571 5.251 5.251 0 00-4.39.987 3.918 3.918 0 00-.862 1.004 52.91 52.91 0 0017.776 25.755l7.469.138a74.825 74.825 0 0017.25-12.878c-4.15.615-8.381.399-12.446-.635a15.14 15.14 0 01-.932 1.374z" fill="url(#paint0_linear)"/><path d="M113.017 106.928a28.556 28.556 0 01-2.751 7.125 31.657 31.657 0 0012.445.635 75.737 75.737 0 007.582-8.808 34.46 34.46 0 00-2.467-15.745 32.97 32.97 0 00-5.727-1.262 31.884 31.884 0 00-5.115-.266 9.959 9.959 0 00-3.07.455 47.193 47.193 0 01-.897 17.866z" fill="url(#paint1_linear)"/><path d="M96.316 93.57c-2.19 3.279-2.751 8.833.725 10.722l.19.103a13.727 13.727 0 00-.915-10.826z" fill="#65A0A6"/><path d="M96.738 82.538c-5.278 4.344-8.228 9.813-7.762 16.612 0 .747.103 1.468.19 2.163.69 5.701 2.786 10.079 8.254 15.625.37-.567.716-1.151 1.043-1.717a30.789 30.789 0 00-1.725-32.623v-.06zm.302 21.728c-3.45-1.888-2.915-7.443-.724-10.722a13.74 13.74 0 01.914 10.825l-.19-.103zM125.665 114.113a41.367 41.367 0 002.588 2.824 44.21 44.21 0 001.043-1.717 30.783 30.783 0 00-1.725-32.622 22.923 22.923 0 00-5.494 6.361c1.947.22 3.869.614 5.745 1.176a34.46 34.46 0 012.466 15.745 75.737 75.737 0 01-5.701 6.868c.337.455.69.901 1.078 1.365z" fill="#25394D"/><path d="M129.294 115.186l10.911.301a25.128 25.128 0 003.665-8.585c-3.806-.172-7.61-.221-11.411-.146a30.869 30.869 0 01-3.165 8.43zM110.263 114.053a28.566 28.566 0 002.752-7.126c-3.807-.171-7.61-.22-11.411-.146a31.165 31.165 0 01-3.174 8.405l10.91.3c.335-.46.643-.939.923-1.433z" fill="#39546E"/><path d="M129.291 115.186a20.473 20.473 0 01-1.043 1.717h10.695c.463-.444.884-.93 1.259-1.45l-10.911-.267zm14.577-8.258a175.876 175.876 0 00-11.411-.146c.515-2.345.753-4.743.707-7.143a31.062 31.062 0 00-5.572-17.101h15.594c2.665 7.52 2.562 17.041.682 24.39z" fill="url(#paint2_linear)"/><path d="M97.386 116.938h10.703c.458-.447.876-.933 1.251-1.451l-10.91-.3c-.328.6-.673 1.184-1.044 1.751zm15.628-10.01c-3.806-.172-7.61-.221-11.411-.146a30.77 30.77 0 00.11-12.627 30.832 30.832 0 00-4.974-11.617h15.594a34.957 34.957 0 011.578 6.55c.84 5.95.535 12.004-.897 17.84z" fill="url(#paint3_linear)"/><path style="mix-blend-mode:screen" d="M143.865 84.727h-14.878a31.163 31.163 0 013.277 8.13l12.86-.516a39.519 39.519 0 00-1.259-7.614z" fill="url(#paint4_linear)"/><path style="mix-blend-mode:screen" d="M113.037 84.727H98.151a31.204 31.204 0 013.286 8.13l12.851-.516a38.815 38.815 0 00-1.251-7.614z" fill="url(#paint5_linear)"/><path d="M60.788 141.576c-1.526 7.28-.862 14.406-.095 21.548 1.587.301 3.192.515 4.822.661a88.87 88.87 0 01-.932-13.418 16.063 16.063 0 01.983-6.413c1.087-2.575 3.226-4.55 5.434-6.361a8.045 8.045 0 00-2.018-1.58 5.193 5.193 0 00-5.003 0c-1.932 1.107-2.751 3.443-3.19 5.563z" fill="#CF5B44"/><path d="M65.57 143.954a16.066 16.066 0 00-.984 6.413 88.87 88.87 0 00.931 13.418 50.9 50.9 0 003.994.215 42.393 42.393 0 014.571-22.158 28.97 28.97 0 00-1.587-2.395 18.309 18.309 0 00-1.492-1.854c-2.208 1.811-4.347 3.812-5.434 6.361z" fill="url(#paint6_linear)"/><path d="M74.067 141.842a42.39 42.39 0 00-4.57 22.124c3.799.084 7.598-.203 11.34-.859a49.632 49.632 0 00-6.77-21.265z" fill="url(#paint7_linear)"/><path style="mix-blend-mode:screen" d="M71.64 139.928a32.454 32.454 0 017.02 15.092 7.078 7.078 0 01-7.883 0 8.069 8.069 0 01-2.291-3.148 8.036 8.036 0 01-.547-3.849c.173-2.704 2.07-5.717 3.7-8.095z" fill="url(#paint8_linear)"/><path d="M46.053 93.844c-11.747 4.85-17.923 16.646-14.188 26.373 1.897 5.151 5.7 9.443 10.057 12.534 6.037 4.292 13.161 7.589 21.001 6.009.964-.2 1.912-.467 2.838-.798a17.68 17.68 0 01-13.938-3.331c-5.097-3.923-8.15-10.216-9.634-16.749-1.018-4.585-1.32-9.676 1.294-14.114 3.234-5.52 10.626-8.791 17.724-9.349a41.644 41.644 0 0110.151.507 30.097 30.097 0 00-25.306-1.082z" fill="#CF5B44"/><path d="M43.459 103.734c-2.588 4.439-2.312 9.53-1.294 14.114 1.484 6.533 4.537 12.826 9.634 16.749a17.646 17.646 0 006.613 3.142c2.401.573 4.897.638 7.325.189a28.339 28.339 0 0014.205-11.641c3.64-6.01 4.658-13.032 2.588-19.059a22.601 22.601 0 00-11.213-12.336 41.65 41.65 0 00-10.151-.464c-7.098.515-14.49 3.786-17.707 9.306zm18.371 8.044a8.477 8.477 0 011.406-8.447 7.245 7.245 0 012.545-1.927 7.275 7.275 0 013.13-.649 15.88 15.88 0 00-1.302-5.915 13.022 13.022 0 013.32 6.207c1.63.46 3.134 1.283 4.397 2.408a11.1 11.1 0 012.891 4.082c.252.604.418 1.24.492 1.889a7.438 7.438 0 01-1.984 5.778 6.919 6.919 0 01-4.442 2.172c-.31 0-.62.043-.948.051 0 6.482-2.95 13.212-7.418 18.484 3.692-5.804 5.762-12.243 5.417-18.664-3.278-.618-6.305-2.739-7.504-5.469z" fill="url(#paint9_linear)"/><path d="M63.24 103.33a8.48 8.48 0 00-1.406 8.448c1.2 2.73 4.227 4.85 7.54 5.468.31 6.422-1.726 12.878-5.435 18.664 4.468-5.271 7.375-12.019 7.418-18.484.328 0 .638 0 .948-.051a6.91 6.91 0 004.442-2.172 7.437 7.437 0 001.984-5.778 6.946 6.946 0 00-.491-1.888 11.104 11.104 0 00-2.892-4.083 11.167 11.167 0 00-4.397-2.408 13.023 13.023 0 00-3.337-6.207 15.88 15.88 0 011.285 5.95 7.269 7.269 0 00-5.658 2.541zm-.974 6.628a7.24 7.24 0 010-2.576c0-.086 0-.172.052-.257.052-.086 0-.181.06-.275.06-.095 0-.146.06-.223.061-.078.113-.37.182-.558a.733.733 0 01.052-.121c.035-.111.078-.22.129-.326.103-.223.215-.438.336-.652.11-.197.235-.387.371-.567.35-.49.775-.921 1.26-1.279.094-.074.191-.142.293-.206a5.651 5.651 0 013.45-.859c3.691.215 6.658 3.246 7.762 6.01.222.515.37 1.058.44 1.614a5.693 5.693 0 01-1.134 4.238 5.758 5.758 0 01-3.817 2.192 9.933 9.933 0 01-6.52-1.803 7.622 7.622 0 01-2.64-3.099 3.83 3.83 0 01-.18-.507 4.893 4.893 0 01-.156-.746z" fill="#CF5B44"/><path d="M62.296 107.374a7.238 7.238 0 000 2.575c.042.245.103.486.181.722.049.172.11.342.182.506a7.622 7.622 0 002.639 3.099 9.667 9.667 0 002.398 1.245 9.615 9.615 0 003.519.592 6.012 6.012 0 002.092-2.481 5.983 5.983 0 00.495-3.202 6.286 6.286 0 00-.449-1.605c-1.138-2.739-4.13-5.735-7.762-5.924h-.405l-.294.206a5.74 5.74 0 00-1.259 1.279 5.02 5.02 0 00-.37.567c-.121.215-.233.429-.337.652-.05.106-.094.215-.13.327a.689.689 0 00-.051.12c-.07.189-.12.369-.181.558-.06.189 0 .154-.06.223-.061.069-.052.18-.061.275-.009.094-.138.197-.147.266z" fill="#C9FFEF"/><path d="M65.092 102.909h.406c3.674.189 6.667 3.185 7.762 5.924.22.513.371 1.053.448 1.605a5.982 5.982 0 01-.494 3.202 6.012 6.012 0 01-2.093 2.481 9.616 9.616 0 01-3.519-.592 9.352 9.352 0 004.123.558 5.759 5.759 0 003.817-2.192 5.703 5.703 0 001.133-4.238 5.984 5.984 0 00-.44-1.614c-1.103-2.739-4.07-5.769-7.762-6.009a5.647 5.647 0 00-3.38.875z" fill="#44CFB8"/><path d="M63.57 109.503a4.095 4.095 0 002.51 2.241 4.636 4.636 0 003.709-.498 3.246 3.246 0 001.267-1.304 3.224 3.224 0 00.363-1.778c.345 1.081.82 2.429.389 3.562a4.417 4.417 0 01-2.657 2.576 4.21 4.21 0 01-4.114-.944c-1-.962-1.087-2.542-1.466-3.855z" fill="#A4EDE0"/><path d="M66.56 109.117c-1.094-.318-2.354-1.048-2.086-2.276.241-1.081 1.725-1.717 2.837-1.571 2.614.421 2.519 4.799-.75 3.847z" fill="#EBFFFC"/><path style="mix-blend-mode:screen" d="M52.95 101.888a5.848 5.848 0 00-.217 5.744 13.53 13.53 0 003.942 4.438 39.906 39.906 0 0012.696 6.645v-1.468c-3.312-.618-6.34-2.739-7.538-5.469a8.477 8.477 0 011.406-8.447 7.275 7.275 0 015.675-2.576 17.301 17.301 0 00-.742-4.533 25.364 25.364 0 00-10.91 2.327 10.348 10.348 0 00-4.313 3.339zm22.734 18.295a39.983 39.983 0 01-4.424-.945c.06-.609.095-1.219.095-1.828.328 0 .638 0 .948-.052a6.91 6.91 0 004.442-2.172 7.458 7.458 0 001.984-5.777 6.953 6.953 0 00-.492-1.889 11.104 11.104 0 00-2.89-4.083 11.165 11.165 0 00-4.398-2.407 13.01 13.01 0 00-2.13-4.773c2.298.047 4.568.507 6.702 1.356a21.417 21.417 0 016.969 9.598 21.026 21.026 0 01.491 11.59 5.544 5.544 0 01-.862.661c-1.906 1.21-4.313 1.073-6.435.721z" fill="url(#paint10_linear)"/><path d="M41.164 154.823a53.012 53.012 0 01-4.822 8.688 93.907 93.907 0 004.83-.455 43.757 43.757 0 00-.008-8.233z" fill="#94122E"/><path d="M24.818 153.484a129.407 129.407 0 00-4.26 9.331 66.73 66.73 0 0015.783.696 53.005 53.005 0 004.821-8.688v-.387c-.319-3.073-.698-6.988-2.329-9.563a4.14 4.14 0 00-3.665-2.06c-5.028.317-8.41 6.79-10.35 10.671z" fill="url(#paint11_linear)"/><path d="M41.158 154.823a43.749 43.749 0 010 8.233c.863-.112 1.803-.232 2.709-.361a102.742 102.742 0 001.388-23.771 50.24 50.24 0 01-4.097 15.899z" fill="#CF5B44"/><path d="M18.339 162.386c.741.163 1.474.301 2.216.429a129.407 129.407 0 014.26-9.331c1.941-3.881 5.322-10.354 10.35-10.671a4.138 4.138 0 013.666 2.06c1.63 2.575 2.01 6.49 2.33 9.564v.386a50.234 50.234 0 004.105-15.899 100.786 100.786 0 00-.958-9.092 3.897 3.897 0 00-2.493-3.382 6.12 6.12 0 00-4.692.807 16.365 16.365 0 00-3.811 3.296c-8.082 8.783-13.205 20.535-14.973 31.833z" fill="url(#paint12_linear)"/><path style="mix-blend-mode:screen" d="M40.738 145.259c-.983 2.859-2.518 5.907-5.175 7.143a5.877 5.877 0 01-4.061.225 5.843 5.843 0 01-3.227-2.466c-2.673-4.155-.81-9.881 1.855-14.174 1.992-3.227 7.676-10.731 11.695-8.181 1.337.859 1.51 2.807 1.432 4.533a46.065 46.065 0 01-2.519 12.92z" fill="url(#paint13_linear)"/><path d="M42.863 93.767l.094-.25c-1.37 1.718-2.475 3.435-3.846 5.152 3.19 2.421 7.409 2.919 11.402 3.262 4.184.488 8.407.534 12.6.137a22.475 22.475 0 0011.429-5.15 11.637 11.637 0 00-3.036-1.795c-8.892-3.666-19.139-2.653-28.643-1.356z" fill="#CF5B44"/><path d="M28.425 45.442c1.337 11.212 6.322 21.745 11.489 31.816 2.587 1.373 5.321 2.987 7.883 4.36a38.639 38.639 0 01.69 16.312 109.61 109.61 0 0034.612-3.322 97.194 97.194 0 002.484-15.702c2.328-1.717 7.348-6.413 7.348-6.413s1.25-9.555 1.423-12.8a64.1 64.1 0 00-1.906-20.535c-3.053-11.264-10.212-21.729-20.605-27.146-10.393-5.417-24.08-4.902-33.06 2.576C30.09 21.893 27.08 34.23 28.426 45.442z" fill="url(#paint14_radial)"/><path d="M42.953 46.541c.052.249.112.49.172.738 1.139 4.67 2.752 9.555 3.994 14.268 2.926-.59 5.93-.697 8.892-.317a48.24 48.24 0 00.664-12.096c-.37-4.01-1.88-8.062-4.907-10.723-1.786-1.571-3.925-2.258-5.788-.558a9.923 9.923 0 00-2.924 6.01 16.23 16.23 0 00-.103 2.678zM78.89 61.805c1.622-.103 3.25-.06 4.864.129a47.013 47.013 0 001.466-9.006 14.96 14.96 0 00-2.104-8.584 5.063 5.063 0 00-3.114-2.438 2.831 2.831 0 00-2.096.472c.708 6.464 1.363 13.006.984 19.427z" fill="#C9FFEF"/><path d="M56.01 61.23a27.36 27.36 0 00-8.893.317c.147.558.285 1.1.423 1.649 3.91-.372 7.828-.624 11.755-.756a44.486 44.486 0 00-.491-25.17A17.64 17.64 0 0056 31.56a8.164 8.164 0 00-2.379-2.118 8.202 8.202 0 00-3.012-1.05 7.793 7.793 0 00-3.87.821 7.75 7.75 0 00-2.96 2.613 12.567 12.567 0 00-1.985 7.59c.131 2.406.519 4.791 1.156 7.116a16.238 16.238 0 01.104-2.67 9.923 9.923 0 012.924-6.01c1.863-1.716 4.002-1.012 5.787.559 3.027 2.661 4.537 6.713 4.908 10.722a48.245 48.245 0 01-.665 12.097zM83.746 61.942a27.105 27.105 0 00-4.865-.137c0 .343 0 .687-.069 1.039 2.51.18 5.029.429 7.53.72a35.042 35.042 0 001.035-20.766 24.48 24.48 0 00-3.381-7.606 6.881 6.881 0 00-1.725-1.94 3.175 3.175 0 00-2.484-.55c-.564.18-1.07.506-1.469.943a3.36 3.36 0 00-.8 1.547 9.89 9.89 0 000 3.528c.13 1.21.268 2.438.415 3.657a2.831 2.831 0 012.095-.472 5.087 5.087 0 013.105 2.455 14.96 14.96 0 012.105 8.585 47.003 47.003 0 01-1.492 8.997z" fill="#44CFB8"/><path d="M6.676 46.052c2.242 7.194 6.33 13.959 10.186 20.535a180.606 180.606 0 013.217 5.692c.483-.141.916-.415 1.25-.79 1.674-1.717 1.967-4.155 1.837-6.67v-.301c-1.845-2.387-3.682-4.79-5.407-7.272a56.818 56.818 0 01-7.375-13.924 3.55 3.55 0 00-3.225 1.605 4.17 4.17 0 00-.483 1.125z" fill="url(#paint15_linear)"/><path d="M5.97 47.734a10.854 10.854 0 01.225-3.434c.147-.555.395-1.08.733-1.545a4.188 4.188 0 012.769-1.554 5.58 5.58 0 012.734.223 11.507 11.507 0 014.856 3.76 32.23 32.23 0 017.426 20.828v.54c-.095 2.653-.69 5.151-2.717 6.946-.288.255-.61.469-.957.635-1.838.859-3.45-.54-5.011-2.232a38.28 38.28 0 01-5.908-8.654 39.758 39.758 0 01-4.15-15.513zM16.32 70.27c1.208 1.279 2.476 2.344 3.779 2.009.483-.141.916-.415 1.25-.79 1.673-1.717 1.967-4.155 1.837-6.67v-.301a30.265 30.265 0 00-7.322-17.814 10 10 0 00-4.244-3.168 4.38 4.38 0 00-1.242-.214 3.55 3.55 0 00-1.834.362 3.53 3.53 0 00-1.392 1.243c-.206.35-.36.73-.457 1.125a9.4 9.4 0 00-.06 3.262 37.08 37.08 0 009.668 20.956h.018z" fill="#94122E"/><path d="M6.621 49.314a37.08 37.08 0 009.686 20.956c1.207 1.279 2.475 2.343 3.778 2.009a180.611 180.611 0 00-3.218-5.692C13.012 60.01 8.925 53.246 6.681 46.052a9.4 9.4 0 00-.06 3.262zm9.229-2.576a30.264 30.264 0 017.296 17.814c-1.845-2.387-3.682-4.79-5.407-7.271a56.822 56.822 0 01-7.375-13.925c.423.011.84.084 1.242.215a10.002 10.002 0 014.261 3.133l-.017.034z" fill="url(#paint16_linear)"/><path d="M85.149 94.059c.707-.206 1.423-.421 2.13-.644 1.236-3.864 2.478-7.73 3.726-11.599a52.617 52.617 0 00-5.856 12.243zM23.722 7.076a30.385 30.385 0 00-11.589 11.99 30.205 30.205 0 00-3.488 16.272A32.726 32.726 0 009.698 41.2a4.195 4.195 0 00-2.769 1.614c-.338.466-.587.99-.733 1.545a34.568 34.568 0 01-1.19-7.666C4.523 24.35 12.414 12.141 23.722 7.076zm.983 59.46c2.519 3.279 5.011 6.584 7.21 10.087 3.839 6.138 6.78 13.109 6.9 20.277a103.637 103.637 0 01-11.971-2.575c0-7.031-2.588-13.805-5.848-20.235.348-.166.67-.38.958-.635 2.061-1.743 2.656-4.267 2.751-6.92z" fill="#CF5B44"/><path d="M2.536 28.324a33.589 33.589 0 0110.35-18.235c5.348-4.704 12.282-7.349 19.303-8.645 13.42-2.49 28.401-2.232 40.537 4.559a44.578 44.578 0 0120.501 25.42c2.752 8.86 3.002 18.938 2.467 28.33a179.164 179.164 0 01-.285 4.293 88.833 88.833 0 01-4.873 22.5c-.353.997-1.725 6.43-2.69 6.723l-.57.171c1.236-3.863 2.478-7.729 3.726-11.598a52.621 52.621 0 00-5.856 12.242l-2.053.558a97.193 97.193 0 002.484-15.701c2.329-1.718 7.348-6.413 7.348-6.413s1.251-9.59 1.424-12.835a64.098 64.098 0 00-1.907-20.535C89.39 27.894 82.231 17.429 71.838 12.012c-10.394-5.417-24.081-4.902-33.06 2.576-8.694 7.254-11.704 19.59-10.35 30.803 1.354 11.212 6.314 21.797 11.48 31.867 2.587 1.374 5.322 2.988 7.883 4.361a38.636 38.636 0 01.69 16.311 101.97 101.97 0 01-9.634-1.038c-.155-7.169-3.096-14.14-6.9-20.278-2.2-3.503-4.692-6.808-7.21-10.087v-.541a32.23 32.23 0 00-7.426-20.827 11.508 11.508 0 00-4.9-3.752 5.579 5.579 0 00-2.733-.223 32.724 32.724 0 01-1.053-5.846 30.205 30.205 0 013.496-16.275A30.386 30.386 0 0123.719 7.076c-11.299 5.065-19.2 17.273-18.716 29.6a34.57 34.57 0 001.19 7.667 10.854 10.854 0 00-.224 3.434 39.758 39.758 0 004.14 15.453 38.28 38.28 0 005.908 8.654c1.544 1.717 3.174 3.09 5.01 2.232 3.296 6.43 5.823 13.204 5.849 20.234a94.93 94.93 0 01-5.175-1.596c-2.096-10.302-7.849-19.497-12.61-29.009a74.982 74.982 0 01-5.736-14.362 45.458 45.458 0 01-.819-21.06z" fill="url(#paint17_linear)"/><path style="mix-blend-mode:screen" opacity=".7" d="M29.39 3.095a17.834 17.834 0 00-1.526 11.238 29.787 29.787 0 004.312 10.654c4.9 7.82 12.17 13.942 20.234 18.243 8.065 4.3 16.914 6.868 25.875 8.585a25.87 25.87 0 007.866.55 9.953 9.953 0 003.773-1.113 9.907 9.907 0 003.04-2.485c4.15-5.563.717-15.23-1.724-20.861A45.651 45.651 0 0076.93 9.663C63.71-.27 44.881-1.515 29.391 3.095z" fill="url(#paint18_linear)"/><path style="mix-blend-mode:screen" d="M87.561 55.873a4.222 4.222 0 01-.638 1.64 1.662 1.662 0 01-1.5.712c-.716-.103-1.182-.78-1.527-1.416-2.329-4.353-2.898-9.444-3.01-14.354a6.07 6.07 0 01.215-2.164 1.972 1.972 0 011.457-1.495 1.992 1.992 0 011.993.637c4.088 3.648 4.183 11.47 3.01 16.44z" fill="url(#paint19_linear)"/><path style="mix-blend-mode:screen" d="M60.38 52.653a7.255 7.255 0 01-.862 3.005 2.977 2.977 0 01-2.587 1.553c-1.622-.077-2.588-1.768-3.243-3.253-2.415-5.7-5.02-12.637-3.45-18.887.126-.627.415-1.21.837-1.692a3.692 3.692 0 011.57-1.055 3.466 3.466 0 012.768.575 7.404 7.404 0 011.949 2.12c3.2 4.842 3.64 12.036 3.019 17.634z" fill="url(#paint20_linear)"/><path d="M2.064 24.615c33.638-3.434 77.081-3.477 91.649 3.322a61.098 61.098 0 012.933 14.715L1.166 40.935a39.98 39.98 0 01.897-16.32z" fill="url(#paint21_linear)"/><path d="M95.455 42.66L1.83 40.979l.078.841 93.675 2.138-.13-1.296z" fill="#94122E"/><path style="mix-blend-mode:screen" d="M89.372 26.487a75.36 75.36 0 011.484 15.976l-17.207-.197-.509-18.758c6.262.618 11.877 1.51 16.232 2.979z" fill="url(#paint22_linear)"/><path d="M73.733 68.758a57.86 57.86 0 00-17.87 1.04c.508-.765 1-1.426 1.5-2.19a17.137 17.137 0 00-6.9 6.164c6.9-3.709 15.672-4.662 23.477-3.228-.06-.575-.19-1.21-.207-1.786z" fill="#44CFB8"/><path d="M11.61 118.586a23.85 23.85 0 00-1.647 10.619 13.122 13.122 0 014.425-6.79 49.773 49.773 0 019.151-19.746c-.431.369-.862.764-1.26 1.151-4.407 4.275-8.434 9.083-10.668 14.766z" fill="#CF5B44"/><path d="M14.389 122.414c.543-.426 1.12-.808 1.725-1.141a13.156 13.156 0 0111.35-.576c-.733-3.064.199-6.455 1.139-9.366 1.06-3.262 4.657-13.46-2.657-10.19-.853.403-1.646.923-2.354 1.545a49.777 49.777 0 00-9.203 19.728z" fill="url(#paint23_linear)"/><path d="M14.39 122.415a13.119 13.119 0 00-4.425 6.79 18.075 18.075 0 002.087 7.109c1.19 2.172 3.036 4.172 5.45 4.713 3.114.695 6.832-.859 9.376-2.576a9.765 9.765 0 002.846-2.744 9.713 9.713 0 001.518-3.643c.613-4.069-2.027-6.705-3.45-10.164a8.013 8.013 0 01-.388-1.22 13.173 13.173 0 00-11.35.576c-.585.342-1.141.729-1.665 1.159z" fill="url(#paint24_linear)"/><path style="mix-blend-mode:screen" d="M29.002 107.7a43.618 43.618 0 00-2.907 11.856 12.009 12.009 0 00-6.675.103 38.584 38.584 0 015.175-9.778 5.196 5.196 0 014.407-2.181z" fill="url(#paint25_linear)"/><defs><linearGradient id="paint0_linear" x1="122.713" y1="113.606" x2="80.252" y2="113.606" gradientUnits="userSpaceOnUse"><stop stop-color="#FBA746"/><stop offset="1" stop-color="#DE731F"/></linearGradient><linearGradient id="paint1_linear" x1="120.348" y1="89.457" x2="120.348" y2="111.057" gradientUnits="userSpaceOnUse"><stop stop-color="#3E6785"/><stop offset="1" stop-color="#1D2243"/></linearGradient><linearGradient id="paint2_linear" x1="136.416" y1="82.143" x2="136.416" y2="121.23" gradientUnits="userSpaceOnUse"><stop stop-color="#B2DBC4"/><stop offset="1" stop-color="#375D75"/></linearGradient><linearGradient id="paint3_linear" x1="-696.843" y1="3269.35" x2="-696.843" y2="4882.7" gradientUnits="userSpaceOnUse"><stop stop-color="#B2DBC4"/><stop offset="1" stop-color="#375D75"/></linearGradient><linearGradient id="paint4_linear" x1="136.577" y1="81.859" x2="137.5" y2="94.789" gradientUnits="userSpaceOnUse"><stop stop-color="#BCBD99"/><stop offset=".16" stop-color="#9C9D7F"/><stop offset=".74" stop-color="#2C2D24"/><stop offset="1"/></linearGradient><linearGradient id="paint5_linear" x1="-624.799" y1="859.977" x2="-620.358" y2="982.88" gradientUnits="userSpaceOnUse"><stop stop-color="#BCBD99"/><stop offset=".16" stop-color="#9C9D7F"/><stop offset=".74" stop-color="#2C2D24"/><stop offset="1"/></linearGradient><linearGradient id="paint6_linear" x1="-1482.24" y1="5211.45" x2="-1031.28" y2="4541.06" gradientUnits="userSpaceOnUse"><stop stop-color="#FBA746"/><stop offset="1" stop-color="#DE731F"/></linearGradient><linearGradient id="paint7_linear" x1="79.362" y1="144.074" x2="75.419" y2="167.398" gradientUnits="userSpaceOnUse"><stop stop-color="#FF8759"/><stop offset="1" stop-color="#AB1535"/></linearGradient><linearGradient id="paint8_linear" x1="-1243.5" y1="2764.99" x2="-1227.85" y2="3201.97" gradientUnits="userSpaceOnUse"><stop stop-color="#BCBD99"/><stop offset=".16" stop-color="#9C9D7F"/><stop offset=".74" stop-color="#2C2D24"/><stop offset="1"/></linearGradient><linearGradient id="paint9_linear" x1="-6323.69" y1="7021.78" x2="-4687.3" y2="5295.4" gradientUnits="userSpaceOnUse"><stop stop-color="#FBA746"/><stop offset="1" stop-color="#DE731F"/></linearGradient><linearGradient id="paint10_linear" x1="-3362.23" y1="2906.18" x2="-3796.01" y2="3734.62" gradientUnits="userSpaceOnUse"><stop stop-color="#BCBD99"/><stop offset=".16" stop-color="#9C9D7F"/><stop offset=".74" stop-color="#2C2D24"/><stop offset="1"/></linearGradient><linearGradient id="paint11_linear" x1="-2925.95" y1="3549.33" x2="-2954.1" y2="4172.5" gradientUnits="userSpaceOnUse"><stop stop-color="#FF8759"/><stop offset="1" stop-color="#AB1535"/></linearGradient><linearGradient id="paint12_linear" x1="-4702.32" y1="7573.13" x2="-4536.19" y2="5155.68" gradientUnits="userSpaceOnUse"><stop stop-color="#FBA746"/><stop offset="1" stop-color="#DE731F"/></linearGradient><linearGradient id="paint13_linear" x1="-2647.59" y1="3928.3" x2="-2852.21" y2="4746.44" gradientUnits="userSpaceOnUse"><stop stop-color="#BCBD99"/><stop offset=".16" stop-color="#9C9D7F"/><stop offset=".74" stop-color="#2C2D24"/><stop offset="1"/></linearGradient><linearGradient id="paint15_linear" x1="-1887.68" y1="1963.21" x2="-1370.09" y2="3090.89" gradientUnits="userSpaceOnUse"><stop stop-color="#FF8759"/><stop offset="1" stop-color="#AB1535"/></linearGradient><linearGradient id="paint16_linear" x1="-1870.43" y1="2116.32" x2="-1329.89" y2="3299.38" gradientUnits="userSpaceOnUse"><stop stop-color="#FF8759"/><stop offset="1" stop-color="#AB1535"/></linearGradient><linearGradient id="paint17_linear" x1="-7454.73" y1="14931.9" x2="-6046.93" y2="4428.04" gradientUnits="userSpaceOnUse"><stop stop-color="#FBA746"/><stop offset="1" stop-color="#DE731F"/></linearGradient><linearGradient id="paint18_linear" x1="-3245.5" y1="1737.46" x2="-3994.67" y2="5895.65" gradientUnits="userSpaceOnUse"><stop stop-color="#BCBD99"/><stop offset=".16" stop-color="#9C9D7F"/><stop offset=".74" stop-color="#2C2D24"/><stop offset="1"/></linearGradient><linearGradient id="paint19_linear" x1="52.903" y1="1946.23" x2="335.965" y2="1365.82" gradientUnits="userSpaceOnUse"><stop stop-color="#BCBD99"/><stop offset=".16" stop-color="#9C9D7F"/><stop offset=".74" stop-color="#2C2D24"/><stop offset="1"/></linearGradient><linearGradient id="paint20_linear" x1="-407.851" y1="2456.27" x2="-384.459" y2="1011.13" gradientUnits="userSpaceOnUse"><stop stop-color="#BCBD99"/><stop offset=".16" stop-color="#9C9D7F"/><stop offset=".74" stop-color="#2C2D24"/><stop offset="1"/></linearGradient><linearGradient id="paint21_linear" x1="-5262.62" y1="852.11" x2="-15928.2" y2="915.697" gradientUnits="userSpaceOnUse"><stop stop-color="#9CD95C"/><stop offset="1" stop-color="#9BD85B"/></linearGradient><linearGradient id="paint22_linear" x1="-790.682" y1="224.627" x2="-1490.62" y2="997.245" gradientUnits="userSpaceOnUse"><stop stop-color="#BCBD99"/><stop offset=".16" stop-color="#9C9D7F"/><stop offset=".74" stop-color="#2C2D24"/><stop offset="1"/></linearGradient><linearGradient id="paint23_linear" x1="-2054.24" y1="2950.37" x2="-2298.81" y2="2947.43" gradientUnits="userSpaceOnUse"><stop stop-color="#FBA746"/><stop offset="1" stop-color="#DE731F"/></linearGradient><linearGradient id="paint24_linear" x1="-2790.57" y1="3391.66" x2="-3320.08" y2="3391.66" gradientUnits="userSpaceOnUse"><stop stop-color="#3E6785"/><stop offset="1" stop-color="#1D2243"/></linearGradient><linearGradient id="paint25_linear" x1="-1304.38" y1="1898.86" x2="-1332.83" y2="1563.71" gradientUnits="userSpaceOnUse"><stop stop-color="#BCBD99"/><stop offset=".16" stop-color="#9C9D7F"/><stop offset=".74" stop-color="#2C2D24"/><stop offset="1"/></linearGradient><radialGradient id="paint14_radial" cx="0" cy="0" r="1" gradientUnits="userSpaceOnUse" gradientTransform="rotate(168.711 -1786.459 2975.018) scale(4400.78 5951.95)"><stop stop-color="#3E6785"/><stop offset="1" stop-color="#1D2243"/></radialGradient></defs></svg>