<svg width="125" height="161" fill="none" xmlns="http://www.w3.org/2000/svg"><path d="M54.778 139.83c.677 6.867-.66 13.593-2.146 20.336a53.546 53.546 0 01-4.597.619 87.473 87.473 0 002.31-12.66 14.925 14.925 0 00-.263-6.05c-.751-2.41-2.55-4.292-4.432-6a8.528 8.528 0 012.055-1.486 4.862 4.862 0 014.704 0c1.65 1.04 2.18 3.244 2.369 5.241z" fill="#CF5B44"/><path d="M50.04 142.075c.501 1.977.59 4.036.264 6.05a87.488 87.488 0 01-2.27 12.66 52.364 52.364 0 01-3.771.207 38.295 38.295 0 00-1.99-20.906 40.19 40.19 0 011.734-2.262 20.284 20.284 0 011.601-1.75c1.882 1.709 3.681 3.591 4.432 6.001z" fill="url(#paint0_linear)"/><path d="M42.274 140.086a38.295 38.295 0 011.99 20.906 52.61 52.61 0 01-10.557-.826 52.192 52.192 0 018.567-20.08z" fill="url(#paint1_linear)"/><path style="mix-blend-mode:screen" d="M44.75 138.303a35.076 35.076 0 00-8.163 14.237 6.604 6.604 0 007.428 0 8.554 8.554 0 003.4-6.603c.092-2.575-1.377-5.414-2.665-7.634z" fill="url(#paint2_linear)"/><path d="M46.22 103.828a4.053 4.053 0 011.452 4.127c-.372 1.486-2.105 2.674-3.376 3.524-5.587 3.706-11.084 7.511-16.664 11.217a35.627 35.627 0 01-11.95-12.983 24.83 24.83 0 004.729-1.799 34.776 34.776 0 008.616 8.897 24.763 24.763 0 007.428-3.986 31.017 31.017 0 015.679-10.045 1.92 1.92 0 01.214 0 6.477 6.477 0 013.871 1.048z" fill="#CF5B44"/><path d="M10.73 103.391a20.29 20.29 0 00-10.392.602H.38a.99.99 0 01-.38-.825 17.4 17.4 0 0110.73.223zm-6.257-4.655c-.233.264-.43.558-.586.875a26.666 26.666 0 019.079-.751 20.899 20.899 0 00-8.493-.124zm8.311-2.17c2.389-.017 4.763.368 7.024 1.138a15.435 15.435 0 00-6.66-1.75c-.16.178-.284.386-.364.611z" fill="#1D2243"/><path d="M16.969 94.799a21.978 21.978 0 0112.223 5.142 11.215 11.215 0 01-2.83 3.854 24.758 24.758 0 01-10.68 5.918 35.27 35.27 0 01-1.486-3.136 21.77 21.77 0 01-10.895 1.13 4.611 4.611 0 01-2.633-.998c-.668-.644-.949-2.047-.33-2.716a20.288 20.288 0 0110.391-.578A17.404 17.404 0 000 103.102v-.116c.067-.357.217-.694.438-.982a6.064 6.064 0 013.417-2.327 26.669 26.669 0 019.079-.751 20.897 20.897 0 00-8.526-.124 6 6 0 013.236-1.824 17.397 17.397 0 015.067-.29c2.406-.063 4.806.28 7.098 1.016a15.433 15.433 0 00-6.66-1.75c.353-.462.84-.805 1.394-.982a6.057 6.057 0 012.427-.173z" fill="url(#paint3_radial)"/><path d="M33.434 104.984a17.402 17.402 0 018.766-2.204 31.012 31.012 0 00-5.679 10.044 24.767 24.767 0 01-7.428 3.987 34.776 34.776 0 01-8.616-8.897 24.786 24.786 0 005.917-4.127 11.214 11.214 0 002.831-3.854 19.237 19.237 0 014.21 5.051z" fill="url(#paint4_linear)"/><path d="M71.929 95.567c8.955 4.217 14.138 14.658 10.886 24.108a26.533 26.533 0 01-9.459 12.38c-5.777 4.317-13.114 7.593-20.493 5.926a17.491 17.491 0 01-2.616-.825 17.267 17.267 0 0013.651-3.071c5.167-3.788 8.253-9.846 9.855-16.053 1.122-4.357 1.56-9.153-.355-13.205-2.394-5.068-8.04-7.965-13.61-8.575a32.453 32.453 0 00-8.146.239c6.206-3.301 13.634-4.052 20.287-.924z" fill="#CF5B44"/><path d="M73.398 104.819c1.915 4.077 1.477 8.872.355 13.205-1.602 6.207-4.688 12.265-9.855 16.053a17.255 17.255 0 01-13.651 3.071 19.816 19.816 0 01-11.192-11.613 22.965 22.965 0 011.47-18.067 26.41 26.41 0 0111.117-11.01 32.453 32.453 0 018.146-.24c5.571.611 11.192 3.508 13.61 8.601zm-16.218 7.799a8.624 8.624 0 00-.149-7.981 5.046 5.046 0 00-4.308-2.476 19.21 19.21 0 011.857-5.596 15.591 15.591 0 00-3.549 5.728c-3.02.702-5.695 3.302-7.04 5.778a8.346 8.346 0 00-.751 1.741 6.953 6.953 0 00.66 5.546 4.959 4.959 0 003.466 2.262c.265 0 .537.066.826.082a24.292 24.292 0 004.036 17.63 27.46 27.46 0 01-2.287-17.72 10.213 10.213 0 007.239-5.018v.024z" fill="url(#paint5_linear)"/><path d="M57.031 104.612a8.627 8.627 0 01.149 7.981 10.208 10.208 0 01-7.247 4.953 27.459 27.459 0 002.286 17.72 24.291 24.291 0 01-4.035-17.63c-.281 0-.553-.041-.826-.082a4.957 4.957 0 01-3.466-2.262 6.943 6.943 0 01-.66-5.546 8.34 8.34 0 01.75-1.741c1.346-2.435 4.02-5.068 7.04-5.778a15.592 15.592 0 013.55-5.728 19.217 19.217 0 00-1.857 5.563 5.04 5.04 0 014.316 2.55zm0 6.265c.229-.805.33-1.64.297-2.476v-.248-.256a1.91 1.91 0 000-.214c0-.174-.05-.355-.082-.529v-.115a2.013 2.013 0 00-.074-.305c-.05-.215-.124-.421-.19-.628-.066-.206-.157-.363-.24-.536a4.682 4.682 0 00-.874-1.23l-.223-.198a3.866 3.866 0 00-2.823-.842c-3.029.091-5.943 2.79-7.337 5.315a7.101 7.101 0 00-.644 1.494c-.743 2.6.19 5.778 3.161 6.273a7.619 7.619 0 003.648-.372c.426-.15.842-.326 1.246-.528.342-.174.673-.37.99-.586a8.062 8.062 0 002.658-2.864c.084-.154.155-.314.215-.478.107-.219.198-.445.272-.677z" fill="#CF5B44"/><path d="M57.328 108.442a7.948 7.948 0 01-.297 2.476 5.17 5.17 0 01-.247.677c-.06.164-.132.324-.215.478a8.062 8.062 0 01-2.658 2.864 9.097 9.097 0 01-.99.586c-.404.202-.82.379-1.246.529a8.091 8.091 0 01-3.136.429c-1.461-1.222-1.841-3.5-1.288-5.448.153-.522.37-1.023.644-1.493 1.395-2.526 4.3-5.225 7.337-5.316h.33l.223.198c.355.358.65.77.875 1.222.082.173.165.355.24.536.074.182.14.413.19.628.032.099.056.202.073.305v.116c0 .173.058.355.083.528a1.91 1.91 0 010 .214v.256c0 .083.082.132.082.215z" fill="#C9FFEF"/><path d="M55.562 104.183h-.33c-3.037.091-5.942 2.79-7.337 5.315a6.7 6.7 0 00-.644 1.494c-.553 1.948-.173 4.226 1.288 5.447a8.09 8.09 0 003.136-.429 7.619 7.619 0 01-3.648.372c-2.971-.479-3.904-3.673-3.161-6.273a7.112 7.112 0 01.644-1.494c1.394-2.525 4.308-5.224 7.337-5.315a3.866 3.866 0 012.715.883z" fill="#44CFB8"/><path d="M55.991 110.423a4.204 4.204 0 01-2.426 2.055 3.375 3.375 0 01-3.079-.57 2.826 2.826 0 01-.916-2.963c-.446 1.007-1.065 2.254-.883 3.302a3.38 3.38 0 001.882 2.558 3.613 3.613 0 003.673-.825c.99-.842 1.262-2.319 1.75-3.557z" fill="#A4EDE0"/><path d="M53.507 109.994c.974-.273 2.13-.925 2.055-2.097a1.873 1.873 0 00-2.146-1.543c-2.245.322-2.806 4.448.09 3.64z" fill="#EBFFFC"/><path style="mix-blend-mode:screen" d="M65.648 103.283a6.176 6.176 0 01-.339 5.415 13.658 13.658 0 01-3.771 4.201 34.09 34.09 0 01-11.844 6.049c.066-.462.148-.916.24-1.378a10.219 10.219 0 007.247-4.952 8.625 8.625 0 00-.15-7.981 5.041 5.041 0 00-4.308-2.476c.26-1.456.672-2.88 1.23-4.25a17.75 17.75 0 018.525 2.319 7.703 7.703 0 013.17 3.053zM43.94 120.071a33.391 33.391 0 004.036-.677c.05-.586.116-1.164.206-1.733-.28 0-.553-.041-.825-.083a4.944 4.944 0 01-3.467-2.261 6.952 6.952 0 01-.66-5.546 8.331 8.331 0 01.751-1.742c1.346-2.435 4.02-5.067 7.04-5.777a15.681 15.681 0 012.41-4.424 15.457 15.457 0 00-5.562 1.032 26.043 26.043 0 00-7.346 8.608 23.755 23.755 0 00-2.674 10.845c.176.247.378.473.603.677 1.427 1.254 3.573 1.287 5.488 1.081z" fill="url(#paint6_linear)"/><path d="M121.193 107.848a1.517 1.517 0 01-1.262.338 13.778 13.778 0 00-6.603-3.103 17.464 17.464 0 017.865 2.765zm-14.195 5.34a16.223 16.223 0 015.207 7.535c.253-.239.465-.518.628-.825l.066.066a14.581 14.581 0 00-5.901-6.776zm13.205 5.199c-1.304-3.953-4.952-7.428-9.021-8.072 3.376 2.072 6.091 5.382 9.005 8.072h.016z" fill="#1D2243"/><path d="M120.187 118.387c-1.304-3.953-4.952-7.428-9.021-8.072 3.392 2.072 6.107 5.382 9.021 8.072zm-20.857-5.86c-.116-1.41-.032-2.83.248-4.217a15.476 15.476 0 015.909-9.186c5.084-1.247 11.861-.19 15.277 3.772a4.617 4.617 0 011.387 3.119 2.583 2.583 0 01-.974 1.841 17.464 17.464 0 00-7.865-2.765 13.783 13.783 0 016.602 3.103l.479.405.091.082c1.074.965 1.983 2.1 2.69 3.359.553.906.894 1.924.999 2.98a3.716 3.716 0 01-1.007 2.897 2.394 2.394 0 01-2.864.256 2.825 2.825 0 01-1.197 3.086 3.986 3.986 0 01-3.4.38 6.457 6.457 0 01-2.79-1.651 14.578 14.578 0 00-5.901-6.784 16.227 16.227 0 015.208 7.535 3.41 3.41 0 01-1.568.884 4.581 4.581 0 01-3.4-.702 13.74 13.74 0 01-2.765-2.154 40.367 40.367 0 00-3.038.429 15.435 15.435 0 01-2.12-6.669z" fill="url(#paint7_radial)"/><path d="M99.33 112.527a15.436 15.436 0 002.096 6.653 45.3 45.3 0 00-12.553 4.217c-4.531-2.236-10.73-7.106-12.24-12.636a22.42 22.42 0 0011.134 7.866 37.263 37.263 0 0111.563-6.1z" fill="#CF5B44"/><path d="M105.487 99.124a15.476 15.476 0 00-5.91 9.186 15.062 15.062 0 00-.247 4.217 37.268 37.268 0 00-11.555 6.1 22.422 22.422 0 01-11.134-7.866 9.08 9.08 0 01-.288-3.681 4.795 4.795 0 013.3-4.127c1.503-.371 3.071.231 4.474.908a41.621 41.621 0 017.486 4.63 24.002 24.002 0 0113.874-9.367z" fill="url(#paint8_linear)"/><path d="M71.805 152.334a43.912 43.912 0 003.623 8.187 82.878 82.878 0 01-4.49-.429c.05-2.607.34-5.204.867-7.758z" fill="#94122E"/><path d="M87.313 151.038a107.578 107.578 0 013.03 8.807 62.946 62.946 0 01-14.857.652 43.946 43.946 0 01-3.681-8.163l.074-.363c.611-2.905 1.378-6.603 3.178-9.03a4.432 4.432 0 013.656-1.947c4.647.305 7.18 6.404 8.6 10.044z" fill="url(#paint9_linear)"/><path d="M71.805 152.334a42.375 42.375 0 00-.825 7.758 84.041 84.041 0 01-2.476-.338 97.17 97.17 0 011.163-22.425 44.792 44.792 0 002.138 15.005z" fill="#CF5B44"/><path d="M92.438 159.465c-.71.157-1.42.289-2.129.404a107.648 107.648 0 00-3.029-8.806c-1.42-3.665-3.92-9.764-8.575-10.069a4.425 4.425 0 00-3.599 1.947c-1.8 2.435-2.567 6.125-3.177 9.03l-.075.363a44.79 44.79 0 01-2.203-15.005 98.598 98.598 0 011.848-8.575 4.235 4.235 0 012.691-3.194 5.434 5.434 0 014.317.767 13.297 13.297 0 013.202 3.104c6.694 8.286 10.267 19.412 10.73 30.034z" fill="url(#paint10_linear)"/><path style="mix-blend-mode:screen" d="M73.216 143.313c.627 2.69 1.758 5.571 4.127 6.735 2.368 1.163 5.439.074 7.081-2.113 2.938-3.929 1.783-9.327-.272-13.379-1.535-3.037-6.1-10.127-10.135-7.717-1.346.825-1.7 2.649-1.816 4.275a42.095 42.095 0 001.015 12.199z" fill="url(#paint11_linear)"/><path d="M75.84 100.329a37.197 37.197 0 01-22.762 2.014c-2.278-.529-4.787-1.502-5.654-3.681 9.525.594 18.876 1.106 28.417 1.667z" fill="#CF5B44"/><path d="M101.113 46.45c.883 7.948-.405 15.096-2.716 22.177-1.6 4.895-3.697 9.756-5.917 14.815-2.353.735-4.853 1.692-7.206 2.476-1.089 4.82-2.327 9.822-3.458 14.692-14.03.916-27.286.066-39.674-2.807.074-5.026.347-9.078.363-14.352-2.402-1.552-5.2-3.062-7.61-4.622-1.758-7.85-3.697-17.432-3.994-25.462-.297-8.03.99-16.284 4.952-23.258a33.92 33.92 0 0123.572-16.285 35.862 35.862 0 0127.806 7.321 37.967 37.967 0 0113.882 25.305z" fill="url(#paint12_radial)"/><path d="M26.32 41.267a148.734 148.734 0 0012.884 55.826c-.826-.23-1.742-.47-2.6-.718A142.155 142.155 0 0126.32 41.267zM93.412 8.36c14.205 10.194 17.63 24.654 14.766 40.335-1.51 8.254-4.531 16.152-7.535 23.985-3.483 9.062-6.964 18.14-10.441 27.236-.9.107-1.791.198-2.683.289 4.094-10.548 8.51-20.394 12.1-31.182.479-1.427.941-2.88 1.387-4.34 2.864-9.476 5.084-19.339 4.333-29.21-.751-9.871-4.144-20.997-11.927-27.112z" fill="#CF5B44"/><path d="M111.141 32.494a40.049 40.049 0 00-8.848-19.214A39.096 39.096 0 0082.27 1.378a52.104 52.104 0 00-23.456-.082C48.885 3.433 39.187 8.253 33.12 16.432c-7.47 10.045-8.435 23.473-7.536 35.953 1.09 14.682 3.847 29.778 9.253 43.479l1.741.511A142.157 142.157 0 0126.32 41.267a148.736 148.736 0 0012.884 55.826c.974.256 1.947.487 2.938.71.074-5.026.347-9.079.363-14.352-2.402-1.552-5.2-3.063-7.61-4.622-1.758-7.85-3.697-17.432-3.994-25.462-.297-8.03.99-16.284 4.952-23.258a33.922 33.922 0 0123.572-16.285 35.862 35.862 0 0127.806 7.321A37.967 37.967 0 01101.08 46.45c.883 7.948-.405 15.096-2.716 22.177-1.6 4.895-3.697 9.756-5.917 14.815-2.353.735-4.853 1.692-7.206 2.476-1.056 4.82-2.294 9.822-3.425 14.691 1.89-.115 3.789-.272 5.703-.454 4.094-10.498 8.51-20.344 12.1-31.132.479-1.427.941-2.88 1.387-4.34 2.863-9.476 5.084-19.339 4.333-29.21-.751-9.87-4.127-20.997-11.927-27.112 14.205 10.193 17.63 24.653 14.766 40.334-1.511 8.254-4.531 16.152-7.536 23.985a17016.06 17016.06 0 00-10.44 27.236l2.748-.322s.974-2.765 1.263-3.631a286.8 286.8 0 013.012-8.642c1.197-3.26 2.534-6.47 3.913-9.656 6.157-14.287 12.908-29.283 10.003-45.171z" fill="url(#paint13_linear)"/><path d="M46.946 53.647a40.038 40.038 0 011.172 13.354c-.232 4.036-4.507 5.274-6.488 1.651a27.493 27.493 0 01-3.12-11.11 24.449 24.449 0 01.19-6.552 7.577 7.577 0 011.742-3.723c3.54-3.805 5.827 4.036 6.504 6.38zM88.394 52.26c.353 2.164.417 4.365.19 6.546a27.764 27.764 0 01-3.128 11.117c-1.972 3.656-6.248 2.418-6.487-1.65a40.246 40.246 0 011.172-13.33c.677-2.336 2.963-10.185 6.495-6.371a7.693 7.693 0 011.758 3.689z" fill="#C9FFEF"/><path d="M75.643 77.03a10.102 10.102 0 012.046 5.909h-1.312a12.19 12.19 0 00-.726-2.476 156.035 156.035 0 00-25.371-1.337A7.43 7.43 0 0049 80.842c-.404-.123-.742-.255-1.147-.38a11.332 11.332 0 012.493-4.53l1.007.355c-.273.495-.339 1.072-.611 1.568 8.185-.375 16.387.028 24.496 1.205-.132-.479-.371-1.156-.511-1.651.38-.09.569-.314.916-.38zM47.234 71.722c-4.952 2.476-7.527-4.53-8.46-7.428-1.469-4.589-2.682-9.343-2.69-14.163a32.072 32.072 0 01.23-3.912c.397-3.417 1.602-7.263 5.143-7.32 2.047 0 3.607 1.65 4.646 3.251 4.499 6.983 5.035 16.284 4.02 24.158-.305 2.096-.908 4.424-2.889 5.414zM41.63 68.62c1.981 3.656 6.256 2.418 6.487-1.65a40.04 40.04 0 00-1.172-13.322c-.676-2.335-2.963-10.176-6.495-6.371a7.576 7.576 0 00-1.75 3.689 24.445 24.445 0 00-.19 6.553 27.493 27.493 0 003.12 11.101zM91.01 51.435c0 4.82-1.22 9.575-2.698 14.172-.933 2.888-3.467 9.904-8.452 7.428-1.98-.982-2.583-3.302-2.847-5.365-1.015-7.89-.495-17.184 4.011-24.166 1.04-1.65 2.6-3.301 4.647-3.252 3.54.058 4.745 3.904 5.15 7.32.137 1.284.2 2.573.19 3.863zm-5.554 18.488a27.765 27.765 0 003.128-11.117 24.76 24.76 0 00-.19-6.545 7.693 7.693 0 00-1.733-3.69c-3.532-3.813-5.777 4.037-6.495 6.372a40.244 40.244 0 00-1.172 13.354c.239 4.044 4.49 5.282 6.462 1.626z" fill="#44CFB8"/><path style="mix-blend-mode:screen" d="M30.38 49.875c3.616 5.497 10.301 8.501 16.88 8.724 6.577.223 13.048-1.997 18.817-5.175A47.334 47.334 0 0081.561 40.22a33.492 33.492 0 006.718-18.983 22.054 22.054 0 00-2.13-10.26C79.77-1.724 60.06.686 49.365 5.778c-10.697 5.093-19.321 15.03-21.558 26.741-1.114 5.836-.768 12.265 2.575 17.357z" fill="url(#paint14_linear)"/><path style="mix-blend-mode:screen" d="M78.804 50.52c.19-1.013.466-2.007.825-2.972.727-1.906 2.303-3.706 4.531-3.54 1.99.14 2.939 2.087 3.07 3.87a14.37 14.37 0 01-3.672 10.63c-.776.826-1.84 1.651-2.955 1.404-1.28-.29-1.857-1.775-2.055-3.07a18.158 18.158 0 01.256-6.323z" fill="url(#paint15_linear)"/><path style="mix-blend-mode:screen" d="M37.809 56.181c.228.76.61 1.466 1.122 2.072a2.525 2.525 0 002.113.825c1.37-.19 2.097-1.7 2.476-3.037.774-2.968.859-6.073.248-9.079a7.147 7.147 0 00-1.024-2.69c-1.873-2.65-4.68-.974-5.315 1.551-.902 3.414-.77 7.02.38 10.358z" fill="url(#paint16_linear)"/><defs><linearGradient id="paint0_linear" x1="49.504" y1="161.883" x2="43.537" y2="135.422" gradientUnits="userSpaceOnUse"><stop stop-color="#FBA746"/><stop offset="1" stop-color="#DE731F"/></linearGradient><linearGradient id="paint1_linear" x1="37.083" y1="142.19" x2="40.69" y2="163.806" gradientUnits="userSpaceOnUse"><stop stop-color="#FF8759"/><stop offset="1" stop-color="#AB1535"/></linearGradient><linearGradient id="paint2_linear" x1="42.282" y1="136.776" x2="41.771" y2="158.598" gradientUnits="userSpaceOnUse"><stop stop-color="#BCBD99"/><stop offset=".16" stop-color="#9C9D7F"/><stop offset=".74" stop-color="#2C2D24"/><stop offset="1"/></linearGradient><linearGradient id="paint4_linear" x1="864.201" y1="2083.64" x2="833.027" y2="2541.92" gradientUnits="userSpaceOnUse"><stop stop-color="#FBA746"/><stop offset="1" stop-color="#DE731F"/></linearGradient><linearGradient id="paint5_linear" x1="3251.55" y1="6863.44" x2="1929.37" y2="5434.24" gradientUnits="userSpaceOnUse"><stop stop-color="#FBA746"/><stop offset="1" stop-color="#DE731F"/></linearGradient><linearGradient id="paint6_linear" x1="1606.95" y1="2845.91" x2="1955.64" y2="3531.59" gradientUnits="userSpaceOnUse"><stop stop-color="#BCBD99"/><stop offset=".16" stop-color="#9C9D7F"/><stop offset=".74" stop-color="#2C2D24"/><stop offset="1"/></linearGradient><linearGradient id="paint8_linear" x1="3302.5" y1="2403.78" x2="3283.07" y2="3010.31" gradientUnits="userSpaceOnUse"><stop stop-color="#FBA746"/><stop offset="1" stop-color="#DE731F"/></linearGradient><linearGradient id="paint9_linear" x1="1875.29" y1="3440" x2="1902.65" y2="4016.03" gradientUnits="userSpaceOnUse"><stop stop-color="#FF8759"/><stop offset="1" stop-color="#AB1535"/></linearGradient><linearGradient id="paint10_linear" x1="2338.79" y1="7282.2" x2="2170.55" y2="5062.63" gradientUnits="userSpaceOnUse"><stop stop-color="#FBA746"/><stop offset="1" stop-color="#DE731F"/></linearGradient><linearGradient id="paint11_linear" x1="1389.45" y1="3831.75" x2="1583.94" y2="4563.71" gradientUnits="userSpaceOnUse"><stop stop-color="#BCBD99"/><stop offset=".16" stop-color="#9C9D7F"/><stop offset=".74" stop-color="#2C2D24"/><stop offset="1"/></linearGradient><linearGradient id="paint13_linear" x1="9701.93" y1="15030.1" x2="4111.75" y2="218.161" gradientUnits="userSpaceOnUse"><stop stop-color="#FBA746"/><stop offset="1" stop-color="#DE731F"/></linearGradient><linearGradient id="paint14_linear" x1="53.127" y1="1.337" x2="65.796" y2="78.54" gradientUnits="userSpaceOnUse"><stop stop-color="#BCBD99"/><stop offset=".13" stop-color="#8F9074"/><stop offset=".27" stop-color="#646451"/><stop offset=".42" stop-color="#404034"/><stop offset=".56" stop-color="#24241D"/><stop offset=".71" stop-color="#10100D"/><stop offset=".85" stop-color="#040403"/><stop offset="1"/></linearGradient><linearGradient id="paint15_linear" x1="83.706" y1="59.21" x2="80.149" y2="28.177" gradientUnits="userSpaceOnUse"><stop stop-color="#BCBD99"/><stop offset="1"/></linearGradient><linearGradient id="paint16_linear" x1="408.62" y1="1253.13" x2="214.012" y2="524.61" gradientUnits="userSpaceOnUse"><stop stop-color="#BCBD99"/><stop offset="1"/></linearGradient><radialGradient id="paint3_radial" cx="0" cy="0" r="1" gradientUnits="userSpaceOnUse" gradientTransform="translate(13.379 90.97) scale(24.4054)"><stop stop-color="#3E6785"/><stop offset="1" stop-color="#1D2243"/></radialGradient><radialGradient id="paint7_radial" cx="0" cy="0" r="1" gradientUnits="userSpaceOnUse" gradientTransform="matrix(899.712 0 0 838.969 3398.47 2871.73)"><stop stop-color="#3E6785"/><stop offset="1" stop-color="#1D2243"/></radialGradient><radialGradient id="paint12_radial" cx="0" cy="0" r="1" gradientUnits="userSpaceOnUse" gradientTransform="matrix(4969.05 0 0 6169.12 5361.04 5110.69)"><stop stop-color="#3E6785"/><stop offset="1" stop-color="#1D2243"/></radialGradient></defs></svg>