<svg width="78" height="91" fill="none" xmlns="http://www.w3.org/2000/svg"><path d="M60.84 28.605a6.52 6.52 0 00-.255-1.634 2.785 2.785 0 00-.894-1.374 2.574 2.574 0 00-1.814-.503c-.47.042-.926.18-1.341.404a6.8 6.8 0 00-2.306 2.397 17.928 17.928 0 00-3.057 9.932c.026.852.177 1.697.447 2.505.362 1.046.983 1.949 1.962 1.873a3.163 3.163 0 001.707-.898 21.8 21.8 0 01.447-.382 16.07 16.07 0 003.885-5.603 16.135 16.135 0 001.218-6.717zm-4.43 11.05c-.267.269-.549.534-.844.785-.414.41-.945.681-1.52.777-.933.072-1.496-.835-1.813-1.832a8.048 8.048 0 01-.345-2.043 15.765 15.765 0 012.726-8.782 6.074 6.074 0 012.056-2.115c.352-.19.738-.308 1.135-.35a2.284 2.284 0 011.685.449c.521.474.85 1.125.925 1.827.042.277.069.556.08.835a14.198 14.198 0 01-.966 5.65 14.146 14.146 0 01-3.118 4.798z" fill="#94122E"/><path d="M59.49 26.53c.521.475.85 1.125.925 1.828-.599 3.92-2.176 7.718-4.022 11.296-.268.27-.55.534-.845.786-.414.41-.945.681-1.519.777-.934.072-1.497-.835-1.814-1.832 2.341-3.745 4.576-7.633 5.362-11.93.085-.449.148-.898.197-1.347a2.28 2.28 0 011.716.422z" fill="url(#paint0_linear)"/><path d="M60.495 29.184a14.2 14.2 0 01-.963 5.656 14.146 14.146 0 01-3.121 4.805c1.828-3.592 3.405-7.377 4.022-11.296.036.277.057.556.062.835zm-5.88-.633a15.766 15.766 0 00-2.727 8.782c.026.693.142 1.38.344 2.043 2.342-3.745 4.576-7.633 5.363-11.93.085-.449.147-.898.197-1.347a3.07 3.07 0 00-1.136.35 6.075 6.075 0 00-2.042 2.11v-.008z" fill="url(#paint1_linear)"/><path d="M39.684 18.408c.893.629 1.184 1.877 1.005 2.973-.179 1.095-.71 2.078-1.162 3.084-.353.79-.648 1.612-1.046 2.384a5.96 5.96 0 01-1.577 2.048 2.501 2.501 0 01-1.484.597 2.33 2.33 0 01-1.257-.468 2.347 2.347 0 01-.794-1.086 5.316 5.316 0 01-.17-2.694c.098-.71.247-1.412.447-2.1a13.39 13.39 0 011.27-3.023c.545-.898 1.005-1.796 2.09-2.114a3.113 3.113 0 012.678.4zM23.1 20.954a7.135 7.135 0 01-.402 2.21c-.519 1.98-.586 4.157-1.627 5.93a1.346 1.346 0 01-1.015.8.995.995 0 01-.71-.35 2.133 2.133 0 01-.38-.72 7.05 7.05 0 01-.371-1.885c-.139-2.056.094-4.467 1.117-6.286.218-.42.523-.787.894-1.077a1.62 1.62 0 011.291-.341c.725.17 1.162.97 1.203 1.72z" fill="#C9FFEF"/><path d="M31.751 38.77c-.089.157-.085.26-.174.449a20.117 20.117 0 00-3.924-1.796 6.558 6.558 0 00-4.169.094 1.27 1.27 0 01-.156-1.006 5.717 5.717 0 014.5-.143 13.162 13.162 0 013.923 2.402zM35.438 18.296a3.976 3.976 0 012.235-1.23 3.723 3.723 0 013.056 1.1 5.635 5.635 0 011.489 2.977c.175 1.116.186 2.252.03 3.372a23.09 23.09 0 01-1.47 5.859c-.572 1.437-1.143 3.206-.97 4.746a34.435 34.435 0 00-7.976-2.012c.125-4.333.313-8.715 2.163-12.625.362-.802.85-1.54 1.443-2.187zm1.573-.3c-1.086.336-1.546 1.194-2.091 2.114a13.392 13.392 0 00-1.27 3.022c-.2.688-.349 1.39-.446 2.1a5.317 5.317 0 00.17 2.695c.153.432.43.809.794 1.085a2.33 2.33 0 001.257.468 2.5 2.5 0 001.483-.597 5.958 5.958 0 001.578-2.047c.398-.772.693-1.594 1.046-2.384.447-1.006.992-1.998 1.162-3.085.17-1.086-.108-2.335-1.01-2.959a3.12 3.12 0 00-2.673-.413zM23.1 20.954c-.04-.75-.479-1.549-1.202-1.72a1.617 1.617 0 00-1.31.328c-.371.29-.676.658-.894 1.078-1.023 1.818-1.255 4.23-1.117 6.285.036.648.16 1.287.371 1.9.08.262.209.505.38.718a.998.998 0 00.71.35 1.338 1.338 0 001.015-.799c1.041-1.773 1.108-3.938 1.627-5.931.256-.71.397-1.455.42-2.209zm.058-1.675a3.646 3.646 0 011.175 2.838 14.365 14.365 0 01-.505 3.143c-.535 2.57-.733 5.2-.59 7.821-.697.085-1.39.198-2.082.323a9.654 9.654 0 00-2.561.768 39.688 39.688 0 01-.536-7.184 13.64 13.64 0 011.819-6.694c.406-.669.965-1.347 1.73-1.464a1.992 1.992 0 011.55.45z" fill="#44CFB8"/><path d="M45.301 11.817c4.112 3.314 5.783 8.082 5.251 13.308a39.443 39.443 0 01-3.75 12.8c-.544 1.15-1.08 2.308-1.541 3.494-.228.588-.831 1.859-1.34 3.116a30.267 30.267 0 01-5.024 1.306c-.178 2.407-.849 4.885-1.376 7.256a72.171 72.171 0 00-16.115.125c-.827-2.693-1.028-4.337-1.265-7.206a5.136 5.136 0 01-2.279-.498c-1.859-6.16-2.681-13.532-1.47-20.06a29.1 29.1 0 01.92-3.691C19.7 14.484 24.978 8.459 33.07 7.884A17.927 17.927 0 0145.3 11.817zm-3.034 12.698c.155-1.12.144-2.256-.031-3.372a5.636 5.636 0 00-1.489-2.977 3.737 3.737 0 00-3.056-1.105 3.976 3.976 0 00-2.235 1.23 8.295 8.295 0 00-1.425 2.187c-1.855 3.915-2.056 8.297-2.181 12.63 2.73.35 5.407 1.024 7.977 2.012-.174-1.54.398-3.31.97-4.746a23.09 23.09 0 001.47-5.86zm-10.69 14.681c.09-.166.085-.27.175-.449a13.163 13.163 0 00-3.924-2.429 5.715 5.715 0 00-4.5.144 1.272 1.272 0 00.156 1.006 6.558 6.558 0 014.17-.095 20.123 20.123 0 013.923 1.823zm-7.749-13.945c.284-1.026.454-2.08.505-3.143a3.661 3.661 0 00-1.175-2.838 2 2 0 00-1.569-.449c-.764.135-1.34.795-1.73 1.464a13.64 13.64 0 00-1.818 6.694 39.7 39.7 0 00.536 7.184 9.648 9.648 0 012.56-.759 36.464 36.464 0 012.084-.323 30.285 30.285 0 01.607-7.83z" fill="url(#paint2_radial)"/><path d="M56.08 10.942C51.423 6.564 45.136 3.87 38.759 3.888c-6.377.018-12.777 2.847-16.835 7.786-3.155 3.87-4.88 8.755-5.787 13.734a58.595 58.595 0 00-.813 6.919c-.447 7.184 1.18 14.421 3.923 21.102l.08.076a80.52 80.52 0 012.092-.283c-.826-2.693-1.028-4.337-1.264-7.206a5.136 5.136 0 01-2.28-.498c-1.859-6.16-2.68-13.532-1.47-20.06a29.1 29.1 0 01.92-3.691C19.7 14.484 24.978 8.459 33.07 7.884a17.926 17.926 0 0112.244 3.933c4.112 3.314 5.783 8.082 5.251 13.308a39.443 39.443 0 01-3.749 12.8c-.545 1.15-1.082 2.308-1.542 3.494-.228.588-.831 1.859-1.34 3.116a30.27 30.27 0 01-5.023 1.306c-.18 2.407-.85 4.885-1.377 7.256 2.261.233 4.514.579 6.74 1.028.336.069.671.14 1.005.215.692-4.651 3.16-8.903 5.675-12.908l.688-1.1a8.743 8.743 0 01-.447-2.505 17.929 17.929 0 013.057-9.932 6.802 6.802 0 012.306-2.397 3.473 3.473 0 011.34-.404c.323-5.388-1.59-10.888-4.79-15.293a19.241 19.241 0 015.256 6.161 19.332 19.332 0 012.265 7.79c.07 1.072.056 2.148-.044 3.219.154.531.24 1.08.254 1.634.081 2.305-.333 4.6-1.214 6.73a16.07 16.07 0 01-3.89 5.612c-2.515 4.737-5.393 9.344-7.069 14.426.55.227 1.083.497 1.591.808l.17-.076c1.037-7.633 7.418-13.115 10.278-20.025 3.222-7.839 1.703-19.198-4.625-25.138z" fill="url(#paint3_linear)"/><path d="M60.63 23.751c.07 1.073.055 2.15-.045 3.22a2.785 2.785 0 00-.894-1.374 2.575 2.575 0 00-1.814-.503c.321-5.388-1.591-10.888-4.791-15.293a19.24 19.24 0 015.268 6.158 19.333 19.333 0 012.275 7.792zM53.627 42.205a3.164 3.164 0 001.707-.898 21.8 21.8 0 01.447-.382c-2.516 4.737-5.394 9.343-7.07 14.426a19.458 19.458 0 00-3.387-1.033c.692-4.651 3.159-8.903 5.675-12.908l.688-1.1c.318 1.068.939 1.97 1.94 1.895z" fill="#CF5B44"/><path d="M37.539 53.097c2.261.233 4.513.579 6.739 1.028.337.069.672.14 1.005.215a19.45 19.45 0 013.388 1.033c.55.227 1.082.497 1.59.808-1.765.782-4.057 1.038-5.965 1.159a69.402 69.402 0 01-19.851-1.608c-1.85-.426-3.665-.898-5.113-2.245a80.955 80.955 0 012.092-.282 72.17 72.17 0 0116.115-.108z" fill="#B34732"/><path style="mix-blend-mode:screen" d="M21.924 11.674c-3.155 3.87-4.88 8.755-5.787 13.734a58.595 58.595 0 00-.813 6.919c0 .337-.031.673-.045 1.01.027.732.063 1.464.134 2.191.072.727.206 1.616.75 2.155.546.539 1.342.633 2.088.656 4.916.148 9.626-1.868 13.885-4.378 5.09-3.004 9.831-6.851 13.053-11.916 2.977-4.692 4.51-10.533 3.513-16.015a24.393 24.393 0 00-9.943-2.142c-6.382.018-12.777 2.847-16.835 7.786z" fill="url(#paint4_linear)"/><path style="mix-blend-mode:screen" d="M17.603 26.364c.058.328.196.637.402.898a.867.867 0 00.894.292 1.311 1.311 0 00.648-.8 26.014 26.014 0 001.586-5.257c.099-.507.139-1.122-.259-1.445-1.019-.826-2.355 1.073-2.721 1.796a6.763 6.763 0 00-.55 4.516z" fill="url(#paint5_linear)"/><path style="mix-blend-mode:screen" d="M37.065 17.668c-2.163-.58-3.441 1.989-4.151 3.515a11.502 11.502 0 00-1.064 4.611c0 .705.17 1.58.844 1.774.586.17 1.153-.297 1.587-.723 1.653-1.626 3.37-3.345 4.022-5.568.233-.678.275-1.409.12-2.11a2.082 2.082 0 00-1.358-1.5z" fill="url(#paint6_linear)"/><path d="M31.103 79.47c.367 3.736-.353 7.395-1.162 11.059-.822.152-1.651.266-2.489.34a47.796 47.796 0 001.23-6.887 8.074 8.074 0 00-.14-3.29c-.41-1.312-1.385-2.335-2.404-3.265.33-.321.706-.594 1.113-.808a2.613 2.613 0 012.547 0c.917.58 1.203 1.778 1.305 2.851z" fill="#CF5B44"/><path d="M28.543 80.705a8.072 8.072 0 01.138 3.29 47.782 47.782 0 01-1.229 6.888c-.679.063-1.34.099-2.042.113.703-3.818.33-7.757-1.077-11.373.3-.45.617-.835.939-1.23.27-.335.56-.652.866-.952 1.02.93 2.016 1.953 2.405 3.264z" fill="url(#paint7_linear)"/><path d="M24.333 79.623a20.925 20.925 0 011.077 11.373 28.366 28.366 0 01-5.716-.45 28.466 28.466 0 014.639-10.923z" fill="url(#paint8_linear)"/><path style="mix-blend-mode:screen" d="M25.674 78.653a19.077 19.077 0 00-4.42 7.745 3.563 3.563 0 004.022 0 4.672 4.672 0 001.841-3.592c.054-1.4-.75-2.945-1.443-4.153z" fill="url(#paint9_linear)"/><path d="M40.39 55.405c4.83 2.294 7.66 7.974 5.894 13.105a14.387 14.387 0 01-5.121 6.735c-3.128 2.353-7.101 4.135-11.096 3.228a9.613 9.613 0 01-1.417-.449 9.297 9.297 0 007.392-1.67c2.797-2.06 4.469-5.36 5.335-8.733.608-2.37.845-4.979-.192-7.183-1.296-2.757-4.352-4.333-7.369-4.665-1.47-.143-2.952-.1-4.41.13 3.364-1.791 7.382-2.209 10.984-.498z" fill="#CF5B44"/><path d="M41.185 60.424c1.037 2.218.8 4.827.192 7.184-.867 3.372-2.538 6.672-5.335 8.733a9.32 9.32 0 01-7.392 1.67 10.744 10.744 0 01-3.697-2.512 10.805 10.805 0 01-2.363-3.805 12.546 12.546 0 01.796-9.829 14.333 14.333 0 016.02-5.976 17.492 17.492 0 014.41-.13c3.017.333 6.073 1.908 7.37 4.665zm-8.781 4.23a4.711 4.711 0 00-.08-4.342 2.728 2.728 0 00-2.333-1.37 10.482 10.482 0 011.005-3.026 8.487 8.487 0 00-1.921 3.116c-1.636.378-3.084 1.796-3.812 3.143a4.68 4.68 0 00-.407.952 3.796 3.796 0 00.357 3.017 2.688 2.688 0 001.877 1.226c.148.026.297.042.447.05a13.285 13.285 0 002.186 9.59 14.973 14.973 0 01-1.234-9.64 5.513 5.513 0 002.263-.913 5.544 5.544 0 001.652-1.803z" fill="url(#paint10_linear)"/><path d="M32.324 60.325a4.709 4.709 0 01.08 4.342 5.544 5.544 0 01-1.657 1.791 5.514 5.514 0 01-2.262.903 14.973 14.973 0 001.233 9.64 13.285 13.285 0 01-2.185-9.59c-.15-.008-.3-.024-.447-.05a2.673 2.673 0 01-1.877-1.226 3.793 3.793 0 01-.357-3.017c.1-.331.236-.65.406-.952.729-1.32 2.177-2.756 3.812-3.143a8.489 8.489 0 011.922-3.116 10.488 10.488 0 00-1.006 3.027 2.712 2.712 0 012.338 1.392zm0 3.408c.123-.43.178-.877.16-1.324v-.135-.14a.518.518 0 000-.116c0-.094-.026-.193-.044-.287a.413.413 0 000-.063 1.13 1.13 0 00-.04-.166 2.983 2.983 0 00-.103-.341 3.415 3.415 0 00-.13-.292 2.55 2.55 0 00-.474-.67l-.116-.107a2.125 2.125 0 00-1.47-.485c-1.645.054-3.222 1.522-3.977 2.896-.143.258-.26.53-.349.813-.402 1.414.103 3.143 1.712 3.412a4.097 4.097 0 001.975-.202c.23-.08.456-.177.675-.287.186-.095.367-.202.54-.32a4.366 4.366 0 001.435-1.557c.045-.085.085-.172.12-.26.035-.114.063-.23.086-.346v-.023z" fill="#CF5B44"/><path d="M32.484 62.409a4.21 4.21 0 01-.16 1.324 3.603 3.603 0 01-.25.629 4.365 4.365 0 01-1.435 1.558 5.032 5.032 0 01-.541.319c-.218.11-.444.206-.675.287-.545.19-1.122.269-1.698.233-.791-.664-.997-1.903-.697-2.963.085-.283.202-.556.348-.813.756-1.373 2.333-2.842 3.973-2.895h.183l.117.107c.192.196.352.422.473.67.05.093.09.192.13.291.041.112.075.226.103.341.017.054.03.11.04.166a.413.413 0 010 .063c0 .095.031.193.045.288a.518.518 0 010 .116v.14c0 .044.044.094.044.139z" fill="#C9FFEF"/><path d="M31.533 60.092h-.184c-1.64.054-3.217 1.522-3.973 2.896-.146.257-.263.53-.348.813-.3 1.06-.094 2.298.697 2.963a4.346 4.346 0 001.698-.234 4.097 4.097 0 01-1.975.203c-1.609-.26-2.114-1.999-1.712-3.413a4.41 4.41 0 01.349-.813c.755-1.373 2.333-2.841 3.977-2.895a2.125 2.125 0 011.47.48z" fill="#44CFB8"/><path d="M31.76 63.486a2.264 2.264 0 01-1.314 1.118 1.821 1.821 0 01-1.666-.31 1.55 1.55 0 01-.497-1.598c-.24.548-.576 1.226-.473 1.796a1.802 1.802 0 001.014 1.387 1.936 1.936 0 001.989-.449c.536-.467.684-1.27.947-1.944z" fill="#A4EDE0"/><path d="M30.415 63.253c.528-.148 1.153-.508 1.113-1.14a1.02 1.02 0 00-.408-.661 1.01 1.01 0 00-.754-.18c-1.202.176-1.52 2.416.05 1.98z" fill="#EBFFFC"/><path style="mix-blend-mode:screen" d="M36.989 59.603a3.36 3.36 0 01-.183 2.945 7.414 7.414 0 01-2.042 2.285 18.425 18.425 0 01-6.413 3.291c.04-.251.08-.502.134-.75a5.514 5.514 0 002.262-.902 5.544 5.544 0 001.657-1.791 4.71 4.71 0 00-.08-4.342 2.728 2.728 0 00-2.333-1.37c.14-.792.365-1.567.67-2.312a9.605 9.605 0 014.616 1.262c.723.38 1.318.966 1.712 1.684zm-11.753 9.132a17.077 17.077 0 002.185-.373c.027-.314.063-.628.112-.938a3.51 3.51 0 01-.447-.05 2.675 2.675 0 01-1.877-1.225 3.793 3.793 0 01-.357-3.017c.1-.332.236-.651.406-.952.729-1.32 2.177-2.757 3.812-3.143a8.662 8.662 0 011.318-2.398 8.239 8.239 0 00-3.016.557 14.2 14.2 0 00-3.977 4.683 12.958 12.958 0 00-1.457 5.918c.095.134.204.257.326.368.773.664 1.935.682 2.972.57z" fill="url(#paint11_linear)"/><path d="M40.336 86.286c.501 1.548 1.16 3.041 1.967 4.454a44.666 44.666 0 01-2.436-.234c.027-1.418.184-2.831.47-4.22z" fill="#94122E"/><path d="M48.71 85.594a61.363 61.363 0 011.64 4.79 33.918 33.918 0 01-8.043.356 23.672 23.672 0 01-1.966-4.454l.04-.198c.335-1.58.746-3.592 1.72-4.912a2.404 2.404 0 011.985-1.06c2.511.167 3.865 3.485 4.625 5.478z" fill="url(#paint12_linear)"/><path d="M40.336 86.286a23.112 23.112 0 00-.47 4.22 45.31 45.31 0 01-1.34-.184 53.35 53.35 0 01.617-12.199c-.067 2.77.337 5.53 1.193 8.163z" fill="#CF5B44"/><path d="M51.513 90.165c-.384.08-.769.157-1.149.22a59.7 59.7 0 00-1.64-4.79c-.773-1.994-2.127-5.312-4.643-5.478a2.391 2.391 0 00-1.984 1.06c-.974 1.324-1.386 3.33-1.72 4.911l-.04.198a24.473 24.473 0 01-1.194-8.163 53.896 53.896 0 011-4.665 2.299 2.299 0 011.458-1.737 2.927 2.927 0 012.337.417 7.218 7.218 0 011.756 1.688c3.616 4.508 5.555 10.583 5.819 16.339z" fill="url(#paint13_linear)"/><path style="mix-blend-mode:screen" d="M41.114 81.378c.335 1.464.947 3.03 2.234 3.664 1.287.633 2.945.04 3.834-1.154 1.596-2.133.966-5.069-.143-7.273-.835-1.653-3.302-5.51-5.492-4.198-.728.448-.92 1.44-.983 2.325-.14 2.227.046 4.463.55 6.636z" fill="url(#paint14_linear)"/><path d="M50.865 73.633c.584.18 1.182.31 1.788.391-.313.341-.63.678-.948 1.02-1.34 1.463-3.575 1.795-5.568 1.117a7.675 7.675 0 01-3.1-1.905 7.723 7.723 0 01-1.883-3.124 9.393 9.393 0 012.98-3.717 9.646 9.646 0 003.697 4.777 10.99 10.99 0 003.034 1.441z" fill="url(#paint15_radial)"/><path d="M47.848 57.407c3.946 2.649 6.99 6.735 9 10.776-.92 2.19-2.524 4.04-4.187 5.836a11.127 11.127 0 01-1.787-.39 31.592 31.592 0 003.83-5.213c-.791-4.333-3.63-8.275-7.557-10.87a6.89 6.89 0 01.701-.139z" fill="#CF5B44"/><path d="M54.695 68.42a31.586 31.586 0 01-3.83 5.213 10.992 10.992 0 01-3.025-1.44 9.647 9.647 0 01-3.696-4.778 8.183 8.183 0 011.644-.983 18.222 18.222 0 01-1.448-6.309c-.062-1.315 1.341-2.19 2.798-2.572 3.928 2.613 6.766 6.537 7.557 10.87z" fill="url(#paint16_linear)"/><path style="mix-blend-mode:screen" d="M50.306 67.514c-1.135 1.176-2.167 2.079-3.302 3.255a4.05 4.05 0 01-2.14-3.013 6.743 6.743 0 011.71-1.172 12.616 12.616 0 01-1.85-6.87c0-.448.622-.736 1.02-1.005a39.276 39.276 0 014.562 8.805z" fill="url(#paint17_linear)"/><path d="M19.587 64.977a3.3 3.3 0 00.447-2.321 17.088 17.088 0 00-.612-2.335 6.68 6.68 0 01-.277-1.477c.708.14 1.44.096 2.127-.126-.1.178-.189.36-.268.548-.304.781 0 1.446.447 2.11.447.665.893 1.347.893 2.101 0 1.953-1.819 2.245-3.356 2.272h-.348a2 2 0 00.947-.772z" fill="#CF5B44"/><path d="M20.012 62.656a3.3 3.3 0 01-.447 2.32c-.24.348-.582.61-.979.75a6.983 6.983 0 01-3.046-.942 7.021 7.021 0 01-2.316-2.2 11.013 11.013 0 01-1.672-6.501c.04-1.433.644-2.838 1.068-4.252a8.925 8.925 0 001.664 3.873 8.871 8.871 0 003.252 2.668 6.4 6.4 0 001.555.49c.037.501.13.997.277 1.477.269.756.484 1.53.644 2.317z" fill="url(#paint18_linear)"/><path d="M19.122 58.844a6.399 6.399 0 01-1.555-.476 8.872 8.872 0 01-3.252-2.669 8.924 8.924 0 01-1.664-3.873 7.858 7.858 0 00.403-2.505 7.937 7.937 0 00-2.369-5.356c.447-.764 1.055-1.594 2.029-1.348.34.109.66.273.947.485a10.135 10.135 0 013.044 3.202 21.649 21.649 0 015.992-5.025c1.22.265 1.985 1.567 1.944 2.82a232.33 232.33 0 01-2.645 2.384 3.73 3.73 0 012.583 1.702 18.67 18.67 0 011.747 3.448c.29.759 0 1.509-.496 2.155-.867 1.163-2.15 1.873-3.128 2.964a11.39 11.39 0 00-1.466 1.948 4.249 4.249 0 01-2.114.144z" fill="url(#paint19_radial)"/><path style="mix-blend-mode:screen" d="M13.733 62.602a10.073 10.073 0 01-1.296-9.622 13.097 13.097 0 002.467 4.23 18.362 18.362 0 00-1.171 5.392z" fill="url(#paint20_linear)"/><path d="M5.859 24.178c-.769-2.568.062-5.36 1.367-7.7s3.066-4.387 4.38-6.735c.473-.84.893-1.94.304-2.694-.59-.754-1.73-.705-2.642-.422a8.644 8.644 0 00-3.16 1.706 8.691 8.691 0 00-2.202 2.847L0 7.453c1.6-1.418 2.655-2.891 4.228-4.337C5.8 1.671 7.655.413 9.765.076c2.109-.336 4.468.45 5.586 2.273 1.135 1.903.657 4.368-.26 6.389-1.197 2.617-3.038 4.88-4.558 7.323-1.52 2.442-2.748 5.248-2.489 8.117-.559.067-1.622-.072-2.185 0zm2.56 1.962c-.93-.516-2.145 0-2.659 1.028-.58 1.19-.125 3.395 1.462 3.547 1.028.1 1.908-1.082 2.114-1.975.205-.894-.045-2.115-.917-2.6zM69.505 37.266c-.644-2.146.053-4.49 1.144-6.439 1.09-1.948 2.565-3.673 3.664-5.621.398-.7.733-1.62.25-2.245-.482-.624-1.443-.593-2.203-.355a7.214 7.214 0 00-2.65 1.424 7.256 7.256 0 00-1.845 2.384l-3.263-3.112c1.341-1.19 2.235-2.42 3.54-3.632 1.305-1.212 2.864-2.245 4.63-2.541 1.765-.297 3.753.363 4.674 1.899.92 1.536.55 3.66-.22 5.343-1 2.195-2.537 4.086-3.811 6.129-1.274 2.042-2.297 4.39-2.078 6.793-.474.035-1.359-.086-1.832-.027zm2.14 1.643a1.657 1.657 0 00-2.234.862c-.492.997-.107 2.838 1.22 2.963.862.086 1.595-.898 1.787-1.652.192-.754-.022-1.764-.773-2.173z" fill="#CF5B44"/><defs><linearGradient id="paint0_linear" x1="60.831" y1="22.337" x2="53.626" y2="41.846" gradientUnits="userSpaceOnUse"><stop stop-color="#FF8759"/><stop offset="1" stop-color="#AB1535"/></linearGradient><linearGradient id="paint1_linear" x1="1186.22" y1="781.551" x2="955.868" y2="1245.47" gradientUnits="userSpaceOnUse"><stop stop-color="#FF8759"/><stop offset="1" stop-color="#AB1535"/></linearGradient><linearGradient id="paint3_linear" x1="49.837" y1="61.771" x2="28.706" y2="6.621" gradientUnits="userSpaceOnUse"><stop stop-color="#FBA746"/><stop offset="1" stop-color="#DE731F"/></linearGradient><linearGradient id="paint4_linear" x1="24.53" y1="-1.033" x2="36.67" y2="34.322" gradientUnits="userSpaceOnUse"><stop stop-color="#BCBD99"/><stop offset=".16" stop-color="#9C9D7F"/><stop offset=".74" stop-color="#2C2D24"/><stop offset="1"/></linearGradient><linearGradient id="paint5_linear" x1="181.516" y1="324.017" x2="166.615" y2="547.596" gradientUnits="userSpaceOnUse"><stop stop-color="#BCBD99"/><stop offset=".16" stop-color="#9C9D7F"/><stop offset=".74" stop-color="#2C2D24"/><stop offset="1"/></linearGradient><linearGradient id="paint6_linear" x1="566.069" y1="380.798" x2="518.722" y2="706.951" gradientUnits="userSpaceOnUse"><stop stop-color="#BCBD99"/><stop offset=".16" stop-color="#9C9D7F"/><stop offset=".74" stop-color="#2C2D24"/><stop offset="1"/></linearGradient><linearGradient id="paint7_linear" x1="305.98" y1="2839.23" x2="92.95" y2="2528.71" gradientUnits="userSpaceOnUse"><stop stop-color="#FBA746"/><stop offset="1" stop-color="#DE731F"/></linearGradient><linearGradient id="paint8_linear" x1="311.617" y1="2126.8" x2="399.008" y2="2405.77" gradientUnits="userSpaceOnUse"><stop stop-color="#FF8759"/><stop offset="1" stop-color="#AB1535"/></linearGradient><linearGradient id="paint9_linear" x1="340.702" y1="1528.92" x2="333.306" y2="1750.02" gradientUnits="userSpaceOnUse"><stop stop-color="#BCBD99"/><stop offset=".16" stop-color="#9C9D7F"/><stop offset=".74" stop-color="#2C2D24"/><stop offset="1"/></linearGradient><linearGradient id="paint10_linear" x1="1826.68" y1="3906.28" x2="1107.62" y2="3132.19" gradientUnits="userSpaceOnUse"><stop stop-color="#FBA746"/><stop offset="1" stop-color="#DE731F"/></linearGradient><linearGradient id="paint11_linear" x1="921.063" y1="1643.54" x2="1111.28" y2="2015.81" gradientUnits="userSpaceOnUse"><stop stop-color="#BCBD99"/><stop offset=".16" stop-color="#9C9D7F"/><stop offset=".74" stop-color="#2C2D24"/><stop offset="1"/></linearGradient><linearGradient id="paint12_linear" x1="1046.58" y1="1958.57" x2="1061.61" y2="2272.3" gradientUnits="userSpaceOnUse"><stop stop-color="#FF8759"/><stop offset="1" stop-color="#AB1535"/></linearGradient><linearGradient id="paint13_linear" x1="1310.88" y1="4107.65" x2="1219.16" y2="2900.22" gradientUnits="userSpaceOnUse"><stop stop-color="#FBA746"/><stop offset="1" stop-color="#DE731F"/></linearGradient><linearGradient id="paint14_linear" x1="778.639" y1="2187.93" x2="884.84" y2="2585.87" gradientUnits="userSpaceOnUse"><stop stop-color="#BCBD99"/><stop offset=".16" stop-color="#9C9D7F"/><stop offset=".74" stop-color="#2C2D24"/><stop offset="1"/></linearGradient><linearGradient id="paint16_linear" x1="1079.2" y1="2329.7" x2="1338.31" y2="2401.7" gradientUnits="userSpaceOnUse"><stop stop-color="#FBA746"/><stop offset="1" stop-color="#DE731F"/></linearGradient><linearGradient id="paint17_linear" x1="531.108" y1="1917.47" x2="677.452" y2="1877.04" gradientUnits="userSpaceOnUse"><stop stop-color="#BCBD99"/><stop offset=".16" stop-color="#9C9D7F"/><stop offset=".74" stop-color="#2C2D24"/><stop offset="1"/></linearGradient><linearGradient id="paint18_linear" x1="253.42" y1="1704.63" x2="459.047" y2="1970.25" gradientUnits="userSpaceOnUse"><stop stop-color="#FBA746"/><stop offset="1" stop-color="#DE731F"/></linearGradient><linearGradient id="paint20_linear" x1="98.719" y1="1131.29" x2="192.088" y2="1347.49" gradientUnits="userSpaceOnUse"><stop stop-color="#BCBD99"/><stop offset=".16" stop-color="#9C9D7F"/><stop offset=".74" stop-color="#2C2D24"/><stop offset="1"/></linearGradient><radialGradient id="paint2_radial" cx="0" cy="0" r="1" gradientUnits="userSpaceOnUse" gradientTransform="matrix(30.1427 0 0 30.2839 28.123 19.414)"><stop stop-color="#3E6785"/><stop offset="1" stop-color="#1D2243"/></radialGradient><radialGradient id="paint15_radial" cx="0" cy="0" r="1" gradientUnits="userSpaceOnUse" gradientTransform="matrix(340.907 0 0 242.607 1371.71 1462.2)"><stop stop-color="#3E6785"/><stop offset="1" stop-color="#1D2243"/></radialGradient><radialGradient id="paint19_radial" cx="0" cy="0" r="1" gradientUnits="userSpaceOnUse" gradientTransform="matrix(593.4 0 0 664.174 625.671 1742.63)"><stop stop-color="#3E6785"/><stop offset="1" stop-color="#1D2243"/></radialGradient></defs></svg>